<svg width="1280" height="750" viewBox="0 0 1280 750" fill="none" xmlns="http://www.w3.org/2000/svg">
  <path d="M175.991 720.823C159.98 704.812 159.98 678.852 175.991 662.84L319.84 518.991C335.852 502.98 361.812 502.98 377.823 518.991C393.835 535.003 393.835 560.963 377.823 576.974L233.974 720.823C217.963 736.835 192.003 736.835 175.991 720.823Z" fill="#1C0C5B" />
  <path d="M312.453 584.361C296.442 568.35 296.442 542.39 312.453 526.378L569.84 268.991C585.852 252.98 611.812 252.98 627.823 268.991C643.835 285.003 643.835 310.963 627.823 326.974L370.436 584.361C354.425 600.373 328.465 600.373 312.453 584.361Z" fill="#3D2C8D" />
  <path d="M-40.1059 492.96C-56.1174 476.948 -56.1174 450.988 -40.1059 434.977L195.182 199.689C211.194 183.677 237.154 183.677 253.165 199.689C269.177 215.7 269.177 241.66 253.165 257.671L17.8768 492.96C1.86533 508.971 -24.0944 508.971 -40.1059 492.96Z" fill="#916BBF" />
  <path d="M4.99138 285.165C-11.0201 269.154 -11.0201 243.194 4.99138 227.182L183.182 48.9915C199.194 32.98 225.154 32.98 241.165 48.9915C257.177 65.0029 257.177 90.9627 241.165 106.974L62.9741 285.165C46.9626 301.177 21.0029 301.177 4.99138 285.165Z" fill="#916BBF" />
  <path d="M122.991 166.078C106.98 150.067 106.98 124.107 122.991 108.095L183.095 47.9913C199.107 31.9798 225.067 31.9798 241.078 47.9913C257.09 64.0028 257.09 89.9626 241.078 105.974L180.974 166.078C164.963 182.09 139.003 182.09 122.991 166.078Z" fill="#3D2C8D" />
  <path d="M247.991 435.714C231.98 419.703 231.98 393.743 247.991 377.732L387.804 237.919C403.816 221.908 429.775 221.908 445.787 237.919C461.798 253.93 461.798 279.89 445.787 295.902L305.974 435.714C289.963 451.726 264.003 451.726 247.991 435.714Z" fill="#916BBF" />
  <path d="M1094.99 203.289C1078.98 187.277 1078.98 161.317 1094.99 145.306L1183.31 56.9913C1199.32 40.9798 1225.28 40.9798 1241.29 56.9913C1257.3 73.0028 1257.3 98.9626 1241.29 114.974L1152.97 203.289C1136.96 219.3 1111 219.3 1094.99 203.289Z" fill="#C996CC" />
  <path d="M923.789 187.165C939.8 203.177 939.8 229.137 923.789 245.148L682.273 486.663C666.262 502.675 640.302 502.675 624.291 486.663C608.279 470.652 608.279 444.692 624.291 428.681L865.806 187.165C881.817 171.154 907.777 171.154 923.789 187.165Z" fill="#916BBF" />
  <path d="M380.991 301.078C364.98 285.067 364.98 259.107 380.991 243.096L441.095 182.991C457.107 166.98 483.067 166.98 499.078 182.991C515.09 199.003 515.09 224.963 499.078 240.974L438.974 301.078C422.963 317.09 397.003 317.09 380.991 301.078Z" fill="#3D2C8D" />
  <path d="M46.9914 407.078C30.9799 391.067 30.9799 365.107 46.9914 349.096L107.095 288.991C123.107 272.98 149.067 272.98 165.078 288.991C181.09 305.003 181.09 330.963 165.078 346.974L104.974 407.078C88.9626 423.09 63.0029 423.09 46.9914 407.078Z" fill="#C996CC" />
  <path d="M745.854 366.991C761.866 383.003 761.866 408.963 745.854 424.974L682.974 487.854C666.963 503.866 641.003 503.866 624.991 487.854C608.98 471.843 608.98 445.883 624.991 429.872L687.872 366.991C703.883 350.98 729.843 350.98 745.854 366.991Z" fill="#3D2C8D" />
  <path d="M509.453 387.078C493.442 371.067 493.442 345.107 509.453 329.095L569.557 268.991C585.569 252.98 611.529 252.98 627.54 268.991C643.552 285.003 643.552 310.963 627.54 326.974L567.436 387.078C551.425 403.09 525.465 403.09 509.453 387.078Z" fill="#916BBF" />
  <path d="M196.991 255.524C180.98 239.512 180.98 213.552 196.991 197.541L337.541 56.9914C353.552 40.9799 379.512 40.9799 395.523 56.9914C411.535 73.0029 411.535 98.9627 395.523 114.974L254.974 255.524C238.963 271.535 213.003 271.535 196.991 255.524Z" fill="#1C0C5B" />
  <path d="M702.609 202.991C718.62 219.003 718.62 244.963 702.609 260.974C686.597 276.986 660.638 276.986 644.626 260.974C628.615 244.963 628.615 219.003 644.626 202.991C660.638 186.98 686.597 186.98 702.609 202.991Z" fill="#C996CC" />
  <path d="M746.195 551.985C730.183 535.973 730.183 510.014 746.195 494.002L1101.96 138.236C1117.97 122.225 1143.93 122.225 1159.94 138.236C1175.96 154.248 1175.96 180.207 1159.94 196.219L804.178 551.985C788.166 567.996 762.206 567.996 746.195 551.985Z" fill="#916BBF" />
  <path d="M819.273 478.728C803.261 462.717 803.261 436.757 819.273 420.745L951.027 288.992C967.038 272.98 992.998 272.98 1009.01 288.991C1025.02 305.003 1025.02 330.963 1009.01 346.974L877.256 478.728C861.244 494.74 835.284 494.74 819.273 478.728Z" fill="#3D2C8D" />
  <path d="M876.974 420.991C892.986 437.003 892.986 462.963 876.974 478.974C860.963 494.986 835.003 494.986 818.991 478.974C802.98 462.963 802.98 437.003 818.991 420.991C835.003 404.98 860.963 404.98 876.974 420.991Z" fill="#C996CC" />
  <path d="M72.9741 54.9913C88.9856 71.0028 88.9856 96.9626 72.9741 112.974C56.9626 128.986 31.0029 128.986 14.9914 112.974C-1.02012 96.9626 -1.02012 71.0028 14.9914 54.9913C31.0029 38.9799 56.9626 38.9799 72.9741 54.9913Z" fill="#C996CC" />
  <path d="M4.99138 677.986C-11.0201 661.975 -11.0201 636.015 4.99138 620.003L248.729 376.266C264.74 360.255 290.7 360.255 306.711 376.266C322.723 392.278 322.723 418.237 306.711 434.249L62.9742 677.986C46.9627 693.997 21.0029 693.998 4.99138 677.986Z" fill="#C996CC" />
  <path d="M1079.71 30.9914C1095.72 47.0029 1095.72 72.9626 1079.71 88.9741L924.088 244.598C908.076 260.609 882.116 260.609 866.105 244.598C850.093 228.587 850.093 202.627 866.105 186.615L1021.73 30.9914C1037.74 14.9799 1063.7 14.9799 1079.71 30.9914Z" fill="#C996CC" />
  <path d="M62.9741 619.468C78.9856 635.479 78.9856 661.439 62.9741 677.451C46.9626 693.462 21.0029 693.462 4.99138 677.451C-11.0201 661.439 -11.0201 635.479 4.99138 619.468C21.0029 603.456 46.9626 603.456 62.9741 619.468Z" fill="#916BBF" />
  <path d="M1021.99 86.9741C1005.98 70.9626 1005.98 45.0029 1021.99 28.9914C1038 12.9799 1063.96 12.9799 1079.97 28.9914C1095.99 45.0029 1095.99 70.9626 1079.97 86.9741C1063.96 102.986 1038 102.986 1021.99 86.9741Z" fill="#916BBF" />
  <path d="M1214.25 260.991C1230.27 277.003 1230.27 302.963 1214.25 318.974L974.974 558.254C958.963 574.266 933.003 574.266 916.991 558.254C900.98 542.243 900.98 516.283 916.991 500.271L1156.27 260.991C1172.28 244.98 1198.24 244.98 1214.25 260.991Z" fill="#C996CC" />
  <path d="M1123.52 352.991C1139.53 369.003 1139.53 394.963 1123.52 410.974L1066.97 467.523C1050.96 483.534 1025 483.534 1008.99 467.523C992.98 451.511 992.98 425.552 1008.99 409.54L1065.54 352.991C1081.55 336.98 1107.51 336.98 1123.52 352.991Z" fill="#916BBF" />
  <path d="M1301.08 172.991C1317.09 189.003 1317.09 214.963 1301.08 230.974L1217.08 314.97C1201.07 330.981 1175.11 330.981 1159.1 314.97C1143.09 298.958 1143.09 272.999 1159.1 256.987L1243.1 172.991C1259.11 156.98 1285.07 156.98 1301.08 172.991Z" fill="#3D2C8D" />
  <path d="M1243.04 230.974C1227.02 214.963 1227.02 189.003 1243.04 172.991C1259.05 156.98 1285.01 156.98 1301.02 172.991C1317.03 189.003 1317.03 214.963 1301.02 230.974C1285.01 246.986 1259.05 246.986 1243.04 230.974Z" fill="#916BBF" />
  <path d="M916.991 557.974C900.98 541.963 900.98 516.003 916.991 499.991C933.003 483.98 958.963 483.98 974.974 499.991C990.986 516.003 990.986 541.963 974.974 557.974C958.963 573.986 933.003 573.986 916.991 557.974Z" fill="#3D2C8D" />
  <path d="M395.974 56.9914C411.986 73.0029 411.986 98.9627 395.974 114.974C379.963 130.986 354.003 130.986 337.991 114.974C321.98 98.9627 321.98 73.0029 337.991 56.9914C354.003 40.9799 379.963 40.9799 395.974 56.9914Z" fill="#3D2C8D" />
  <path d="M995.689 686.262C979.678 670.25 979.678 644.29 995.689 628.279L1105.28 518.689C1121.29 502.677 1147.25 502.677 1163.26 518.689C1179.27 534.7 1179.27 560.66 1163.26 576.671L1053.67 686.262C1037.66 702.273 1011.7 702.273 995.689 686.262Z" fill="#916BBF" />
  <path d="M1107.09 574.523C1091.08 558.512 1091.08 532.552 1107.09 516.541L1247.64 375.991C1263.65 359.98 1289.61 359.98 1305.62 375.991C1321.63 392.003 1321.63 417.963 1305.62 433.974L1165.07 574.523C1149.06 590.535 1123.1 590.535 1107.09 574.523Z" fill="#C996CC" />
  <path d="M1306.07 375.992C1322.08 392.003 1322.08 417.963 1306.07 433.974C1290.06 449.986 1264.1 449.986 1248.09 433.974C1232.08 417.963 1232.08 392.003 1248.09 375.992C1264.1 359.98 1290.06 359.98 1306.07 375.992Z" fill="#3D2C8D" />
  <path d="M1254.97 590.991C1270.99 607.003 1270.99 632.963 1254.97 648.974C1238.96 664.986 1213 664.986 1196.99 648.974C1180.98 632.963 1180.98 607.003 1196.99 590.991C1213 574.98 1238.96 574.98 1254.97 590.991Z" fill="#3D2C8D" />
</svg>