<svg width="100%" height="108" viewBox="0 0 453 108" fill="none" xmlns="http://www.w3.org/2000/svg">
    <path d="M80.7862 4H8.46903C5 4 5 6.37466 5 7.51576C5 8.65687 5 96.9116 5 100.381C5 103.85 8.46903 103.85 8.46903 103.85H80.7862C80.7862 103.85 83.9885 103.85 83.9885 100.381V63.8218C83.9885 60.8864 80.7862 60.8864 80.7862 60.8864M80.7862 60.8864H51.1655C51.1655 60.8864 48.497 60.8864 48.497 63.8218C48.497 66.7572 48.497 82.7684 48.497 82.7684M80.7862 60.8864C80.7862 60.8864 82.9211 60.6196 84.5222 62.2207C86.1233 63.8218 103.469 81.701 103.469 81.701C103.469 81.701 119.068 63.0212 119.747 61.9538C120.426 60.8864 121.882 60.8864 121.882 60.8864V103.85M160.575 60.8864H131.755M160.575 103.85H131.755M174.985 60.8864H200.603C200.603 60.8864 203.806 60.8864 203.806 63.8218V78.2319C203.806 81.701 200.603 81.701 200.603 81.701C191.913 81.701 183.792 81.701 178.721 81.701C173.651 81.701 173.651 81.9678 178.721 85.9706C183.792 89.9734 203.806 103.85 203.806 103.85M131.755 81.7009H160.575M216.081 60.8864H169.115M216.081 71.0268H169.115M272.12 60.8864V82.3681M272.12 103.85V82.3681M300.94 60.8864V82.3681M300.94 103.85V82.3681M272.12 82.3681H300.94M316.684 103.85C318.57 99.3794 321.955 90.7383 325.198 82.3681M357.246 103.85C357.246 103.85 352.199 93.1115 347.138 82.3681M371.656 103.85C371.656 103.85 371.656 63.8218 371.656 60.8864C371.656 57.951 404.479 107.052 404.479 103.85C404.479 100.648 404.479 60.8864 404.479 60.8864M325.198 82.3681C329.317 71.7349 333.206 61.539 333.496 60.8864C334.564 58.4847 335.528 58.2179 336.965 60.8864C337.308 61.5223 342.23 71.9476 347.138 82.3681M325.198 82.3681H347.138M433.833 60.8864V103.85M419.423 60.8864H448.243M260.112 60.8864H231.291C231.291 60.8864 227.822 60.8864 227.822 63.8218C227.822 66.7572 227.822 100.381 227.822 100.381C227.822 103.85 231.291 103.85 231.291 103.85L260.112 103.85M51.9661 51.0131H80.7862C80.7862 51.0131 83.9885 51.0131 83.9885 47.544V20.5917C83.9885 17.6563 80.7862 17.6563 80.7862 17.6563H51.9661C51.9661 17.6563 48.497 17.6563 48.497 20.5917C48.497 23.5271 48.497 47.544 48.497 47.544C48.497 51.0131 51.9661 51.0131 51.9661 51.0131ZM106.938 51.0131H135.758C135.758 51.0131 138.96 51.0131 138.96 47.544V20.5917C138.96 17.6563 135.758 17.6563 135.758 17.6563H106.938C106.938 17.6563 103.469 17.6563 103.469 20.5917C103.469 23.5271 103.469 47.544 103.469 47.544C103.469 51.0131 106.938 51.0131 106.938 51.0131ZM158.974 51.0131H191.263C191.263 51.0131 194.466 51.0131 194.466 47.544V20.5917C194.466 17.6563 191.263 17.6563 191.263 17.6563L158.974 17.3894C158.974 20.3248 158.974 51.0131 158.974 51.0131Z" stroke="url(#paint0_linear_82_136)" stroke-width="8" stroke-linecap="round" />
    <defs>
        <linearGradient id="paint0_linear_82_136" x1="226.488" y1="103.803" x2="226.488" y2="4" gradientUnits="userSpaceOnUse">
            <stop stop-color="#6224A0" />
            <stop offset="1" stop-color="#133AC7" />
        </linearGradient>
    </defs>
</svg>